<?xml version='1.0' encoding='ASCII' standalone='yes'?>
<svg xmlns="http://www.w3.org/2000/svg" xmlns:xlink="http://www.w3.org/1999/xlink" version="1.1" width="1920.0px" viewBox="0 0 1920.0 1080.0" height="1080.0px">
  <g>
    <g>
      <defs/>
      <rect fill="#FE821C" height="1080px" width="1920px" x="0" y="0"/>
    </g>
    <g transform="translate(788.25, 514.5) scale(1 1)"><g>
    <g transform="translate(0, 0) scale(1.5 1.5)"><title>bankinter/logo/bankinter_secundario        </title>
    <g id="bankinter/logo/bankinter_secundario--------" stroke="none" stroke-width="1" fill="none" fill-rule="evenodd">
        <path d="M187.803,24.493 L187.774,24.494 L187.799,24.493 L187.779711,24.4939465 L187.779711,24.4939465 L187.768,24.494 L187.740452,24.4945724 L187.740452,24.4945724 C188.103119,27.3622297 189.553785,29.0350297 194.268452,29.0350297 C198.378675,29.0350297 202.609786,28.4376011 205.873786,27.2427439 L205.873786,31.3052584 C203.456008,32.6196013 198.257786,33.4560013 194.51023,33.4560013 C184.476452,33.4560013 181.212452,30.9468012 181.212452,21.1489723 C181.212452,12.5460005 184.113785,9.31988608 194.389341,9.31988608 C202.972453,9.31988608 206.720008,12.1875433 206.840897,16.9669721 C206.840897,22.7601429 202.81675,24.2249252 188.210219,24.486625 L187.858,24.492 L187.847257,24.4928697 L187.847257,24.4928697 L187.835,24.493 L187.803,24.493 Z M167.431118,2.62868582 L167.431118,10.0368004 L177.706674,10.0368004 L177.706674,14.5772577 L167.431118,14.5772577 L167.431118,25.8089153 C167.431118,27.9596583 169.002673,28.7960583 171.54134,28.7960583 C174.442674,28.7960583 176.376896,28.5570868 177.827563,28.1986297 L177.827563,32.2611441 C175.409785,32.9780585 172.871118,33.3365156 170.816007,33.3365156 C164.046229,33.3365156 161.386673,30.5883441 161.386673,26.2868582 L161.386673,2.62868582 L167.431118,2.62868582 Z M6.16533358,-1.13686838e-13 L6.16533358,11.3511433 C8.09955588,9.79782896 10.7591115,9.4393718 14.5066672,9.4393718 C23.0897787,9.4393718 26.3537788,13.1434291 26.3537788,21.5074294 C26.3537788,30.7078298 22.0017787,33.3365156 13.2977783,33.3365156 L13.2977783,33.3365156 L12.9286233,33.3350589 C3.65084867,33.261104 -1.72306613e-13,30.360235 -1.72306613e-13,22.104858 L-1.72306613e-13,22.104858 L-1.72306613e-13,-1.13686838e-13 L6.16533358,-1.13686838e-13 Z M42.3111128,9.31988608 C49.0808908,9.31988608 54.7626688,10.3952576 54.7626688,17.8033721 L54.7626688,24.8530296 C54.7626688,32.5551419 48.748844,33.1661409 43.4235827,33.2131988 L42.9753496,33.215979 C42.7522024,33.2168437 42.5306216,33.2170299 42.3111128,33.2170299 C33.8488902,33.2170299 29.8595567,30.9468012 29.8595567,26.1673725 C29.8595567,20.086312 33.7967367,18.8123747 47.6778831,18.3128371 L47.989,18.301 L48.048,18.299 C48.0325209,18.2997698 48.0237016,18.300058 48.0147974,18.3003489 L47.989,18.301 L47.9726324,18.3017266 C47.7628468,18.3085812 47.5095642,18.316857 47.2274762,18.326074 L43.9092019,18.4344958 L43.9092019,18.4344958 L47.1704224,18.3279382 L47.1704224,18.3279382 L47.051,18.332 L47.068507,18.3312682 C47.1224156,18.3295068 47.175436,18.3277744 47.2274762,18.326074 L43.9092019,18.4344958 L43.9092019,18.4344958 L47.2274762,18.326074 C44.0473207,18.4299828 37.2061479,18.6535123 47.754437,18.308856 L47.9726324,18.3017266 C47.9868898,18.3012608 48.0009464,18.3008015 48.0147974,18.3003489 L48.123,18.296 L48.1672412,18.295368 L48.1672412,18.295368 L48.172,18.295 L48.202,18.294 L48.216,18.293 L48.25,18.292 L48.2738761,18.2918838 C48.3194263,18.2903954 48.3607053,18.2890467 48.3973619,18.287849 L48.434,18.286 L48.371,18.288 L48.25,18.292 L48.223,18.293 L48.371,18.288 L48.437,18.286 L48.4488363,18.2861671 L48.4488363,18.2861671 L48.45,18.285 L48.462,18.285 L48.486,18.284 L48.47,18.285 L48.528,18.283 L48.5104139,18.2841551 C48.5421453,18.2831183 48.5656292,18.282351 48.5801333,18.2818771 L48.5973353,18.281315 L48.5973353,18.281315 L48.5973353,17.2059435 C48.5973353,14.5772577 46.7840019,13.9798291 42.069335,13.9798291 C37.5964459,13.9798291 33.7280013,14.9357149 31.6728901,15.5331435 L31.6728901,11.2316576 C35.1786681,9.91731468 39.2888905,9.31988608 42.3111128,9.31988608 Z M144.462228,9.55885752 C151.232006,9.55885752 156.067562,11.7096005 156.067562,18.281315 L156.067562,18.281315 L156.067562,33.0975442 L149.902228,33.0975442 L149.902228,18.5202865 C149.902228,14.9357149 148.814228,13.9798291 143.374228,13.9798291 C138.176005,13.9798291 136.967117,15.0552006 136.967117,18.5202865 L136.967117,18.5202865 L136.967117,32.9780585 L130.801783,32.9780585 L130.801783,18.281315 C130.801783,11.7096005 135.637339,9.55885752 142.407117,9.55885752 L142.407117,9.55885752 Z M220.380453,9.31988608 C221.191579,9.31988608 222.576706,9.36191124 223.983093,9.4283381 L224.631692,9.46066514 C226.354579,9.55114877 227.980855,9.67448886 228.480009,9.79782896 L228.480009,14.2188006 L221.83112,14.2188006 C218.446231,14.2188006 217.600009,14.5772577 217.600009,17.8033721 L217.600009,33.0975442 L211.555564,33.0975442 L211.555564,17.3254293 C211.555564,11.1121719 216.149342,9.31988608 220.380453,9.31988608 Z M73.5004474,9.55885752 C80.2702254,9.55885752 85.1057812,11.7096005 85.1057812,18.281315 L85.1057812,18.281315 L85.1057812,33.0975442 L78.9404476,33.0975442 L78.9404476,18.5202865 C78.9404476,14.9357149 77.7315586,13.9798291 72.4124473,13.9798291 C67.093336,13.9798291 65.8844471,15.0552006 65.8844471,18.5202865 L65.8844471,18.5202865 L65.8844471,32.9780585 L59.8400024,32.9780585 L59.8400024,18.281315 C59.8400024,11.7096005 64.6755581,9.55885752 71.4453362,9.55885752 L71.4453362,9.55885752 Z M96.8320038,-4.61852778e-14 L96.8320038,18.4008007 L98.0408928,18.4008007 C99.8542262,18.4008007 100.458671,18.0423436 101.788448,16.8474864 L109.041782,9.91731468 L116.174227,9.91731468 L105.173338,20.9100008 L116.89956,33.0975442 L109.041782,33.0975442 L101.425782,25.092001 C100.269453,23.8348034 99.6661514,23.6708211 98.0289301,23.6589384 L96.711115,23.6581724 L96.711115,32.9780585 L90.6666703,32.9780585 L90.6666703,-4.61852778e-14 L96.8320038,-4.61852778e-14 Z M228.480009,27.1232582 L228.480009,32.9780585 L222.314676,32.9780585 L222.314676,27.1232582 L228.480009,27.1232582 Z M125.361783,9.91731468 L125.361783,32.9780585 L119.07556,32.9780585 L119.07556,9.91731468 L125.361783,9.91731468 Z M48.7182242,22.3438295 L43.157335,22.5828009 C37.5964459,22.9412581 36.2666681,23.6581724 36.2666681,25.5699439 C36.1479772,28.2681487 36.9615495,28.7779281 42.4830508,28.7955735 L42.7946684,28.7960583 L42.7946684,28.7960583 C47.3884463,28.7960583 48.7182242,28.1986297 48.7182242,25.928401 L48.7182242,22.3438295 Z M12.9351116,13.9798291 C7.85777809,13.9798291 5.92355579,14.8162292 5.92355579,20.7905151 C5.92355579,27.7206868 6.89066694,28.7960583 13.1768894,28.7960583 C18.8586674,28.7960583 19.9466675,27.8401725 20.0675564,20.7905151 C20.0675564,14.8162292 18.0124452,13.9798291 12.9351116,13.9798291 Z M194.268452,13.8603434 C188.344896,13.8603434 187.619563,14.9357149 187.619563,20.0736008 L191.004452,19.9541151 C199.104008,19.5956579 200.312897,18.9982293 200.312897,17.0864578 C200.312897,14.9357149 198.86223,13.8603434 194.268452,13.8603434 Z M125.361783,1.687539e-14 L125.361783,5.85480023 L119.07556,5.85480023 L119.07556,1.687539e-14 L125.361783,1.687539e-14 Z" id="Combined-Shape" fill="#FFFFFF"/>
    </g>
</g>
  </g>
</g>
    <g transform="translate(180.0, -240.0) scale(1 1)"><g>
    <g transform="translate(0, 0) scale(13 13)" opacity="0.1"><title>bankinter/icon/bankinter_blanco        </title>
    <g id="bankinter/icon/bankinter_blanco--------" stroke="none" stroke-width="1" fill="none" fill-rule="evenodd">
        <path d="M21.2333805,35 L21.2333805,52.0250896 C24.1301273,49.6953405 28.1131542,49.1577061 33.7256011,49.1577061 C46.5799151,49.1577061 51.4681754,54.7132616 51.4681754,67.2580645 C51.4681754,80.9193548 45.0801969,84.9201613 32.3042399,84.9988113 L31.9151344,85 L31.4886577,84.9987057 C17.6406382,84.9140096 12.1108639,80.6598448 12.0016532,68.5242824 L12,68.1541219 L12,35 L21.2333805,35 Z M65.2277228,35 L65.2277228,62.5985663 L67.0381895,62.5985663 C69.7538897,62.5985663 70.6591231,62.0609319 72.6506365,60.2688172 L83.5134371,49.874552 L94.1951909,49.874552 L77.7199434,66.3620072 L95.281471,84.6415771 L83.5134371,84.6415771 L72.1074965,72.6344086 C70.2970297,70.6630824 69.3917963,70.483871 66.6760962,70.483871 L65.0466761,70.483871 L65.0466761,84.4623656 L55.9943423,84.4623656 L55.9943423,35 L65.2277228,35 Z M108,75.3881458 L108,84.1695078 L98.7666195,84.1695078 L98.7666195,75.3881458 L108,75.3881458 Z M31.3719943,55.9677419 C23.7680339,55.9677419 20.8712871,57.2222222 20.8712871,66.1827957 C20.8712871,76.4628382 22.2880031,78.1534553 31.4265992,78.1893703 L32.0183165,78.1894102 C40.2797148,78.1565925 41.8747358,76.6374693 42.0537482,66.1827957 C42.0537482,57.2222222 38.9759547,55.9677419 31.3719943,55.9677419 Z" id="Combined-Shape" fill="#FFFFFF"/>
    </g>
</g>
  </g>
</g>
  </g>
</svg>
