<svg width="144" height="29" viewBox="0 0 144 29" fill="none" xmlns="http://www.w3.org/2000/svg">
<g clip-path="url(#clip0_10950_286978)">
<path fill-rule="evenodd" clip-rule="evenodd" d="M18.7541 9.38027C18.7541 14.5587 14.5587 18.7541 9.38027 18.7541C4.20185 18.7541 0 14.5587 0 9.38027C0 4.19542 4.20185 0 9.38027 0C14.5523 0 18.7541 4.19542 18.7541 9.38027ZM9.49592 10.0677H7.88329H7.87686V12.3228H9.39312C9.42867 12.3228 9.46508 12.323 9.50217 12.3233C9.88071 12.3254 10.3294 12.3279 10.6395 12.1172C10.9544 11.9117 11.1343 11.5326 11.1343 11.1471C11.1343 10.7937 10.9158 10.4275 10.601 10.2476C10.2862 10.0677 9.84929 10.0677 9.49592 10.0677ZM9.2068 6.35417H7.88329H7.87686V8.40369H9.36742C9.40059 8.40369 9.43423 8.40388 9.46823 8.40407C9.8294 8.40611 10.2308 8.40839 10.5303 8.18525C10.7937 7.9925 10.9287 7.65198 10.9287 7.33717C10.9287 6.99665 10.768 6.66898 10.4661 6.48909C10.1972 6.34091 9.73602 6.34743 9.37902 6.35249C9.31809 6.35335 9.26019 6.35417 9.2068 6.35417ZM5.69884 14.0575V4.68371V4.67728H9.89426C10.6331 4.67728 11.3977 4.67728 12.0402 5.08847C12.7919 5.56391 13.1902 6.25137 13.1902 7.138C13.1902 8.20452 12.477 8.91125 11.494 9.16182V9.18752C12.6569 9.41882 13.4472 10.3119 13.4472 11.5262C13.4472 12.3485 12.9525 13.0745 12.2972 13.55C11.6161 14.0575 10.6974 14.0575 9.89426 14.0575H5.69884Z" fill="#006DFF"/>
<path d="M138.937 28.3207H144V4.6837H138.937V28.3207ZM131.356 28.3207H136.419V4.6837H131.356V28.3207ZM117.851 17.4306C118.024 15.4325 118.885 13.7813 121.121 13.7813C123.325 13.7813 123.948 15.5353 124.051 17.4306H117.851ZM129.12 20.431C129.152 18.0538 128.773 15.5738 127.328 13.5757C125.882 11.5776 123.363 10.4725 120.916 10.4725C115.474 10.4725 112.403 14.6422 112.403 19.8078C112.403 25.0119 115.814 28.6612 121.05 28.6612C126.974 28.6612 129.011 23.4956 129.011 22.6283L124.327 22.2813C124.327 23.9004 122.779 25.0376 121.224 25.0376C119.02 25.0376 117.844 23.3479 117.844 21.2791L117.877 20.4181H129.12V20.431ZM105.445 21.0156C105.445 21.8766 105.412 22.8082 104.995 23.5984C104.584 24.3887 103.723 25.0119 102.791 25.0119C100.273 25.0119 100.003 21.8059 100.003 19.9106C100.003 17.8097 100.105 14.019 103.003 14.019C105.31 14.019 105.451 16.9102 105.451 18.5999V21.0156H105.445ZM110.514 28.3207V4.6837H105.451V12.6762C104.352 11.0571 103.042 10.4725 101.076 10.4725C95.9743 10.4725 94.6636 15.6059 94.6636 19.7757C94.6636 23.8426 96.045 28.6676 100.966 28.6676C103.209 28.6676 104.654 27.4598 105.618 25.603H105.689V28.3271H110.514V28.3207ZM87.5963 20.6366C87.5963 21.8766 87.6284 22.911 86.9089 24.016C86.3242 24.9091 85.3926 25.4616 84.3582 25.4616C82.9447 25.4616 82.1159 24.53 82.1159 23.1551C82.1159 20.6045 85.6624 20.1611 87.5963 19.9491V20.6366ZM93.1088 28.3207C92.8326 27.4598 92.7619 26.5988 92.7619 25.6994V17.5334C92.7619 15.4325 92.9354 13.505 91.1428 12.053C89.7294 10.8772 87.3907 10.4661 85.5918 10.4661C81.9039 10.4661 77.7727 11.7061 77.2523 15.9464L82.0452 16.3962C82.0452 14.6743 83.4587 13.8455 85.0778 13.8455C85.8359 13.8455 86.6968 14.0832 87.1466 14.6743C87.6606 15.3297 87.5963 16.2227 87.5963 16.9808V17.392C85.4633 17.5976 82.6685 17.739 80.6703 18.4907C78.3638 19.3516 76.7448 21.112 76.7448 23.6948C76.7448 27.0036 79.1541 28.6548 82.2573 28.6548C84.8786 28.6548 86.3949 27.6589 87.8405 25.5901C87.8083 26.4832 87.8726 27.4148 88.0846 28.3143H93.1088V28.3207ZM59.7253 28.3207H62.4816C62.79 27.3891 62.9956 26.3932 63.6188 25.6351C64.8909 27.736 66.0988 28.6676 68.6173 28.6676C73.8857 28.6676 75.7168 24.151 75.7168 19.5701C75.7168 15.4325 74.2005 10.4725 69.202 10.4725C67.236 10.4725 65.7904 11.3013 64.9295 13.0231H64.7946V4.6837H59.7318V28.3207H59.7253ZM64.8588 18.465C64.8588 16.6018 65.2057 13.9547 67.6536 13.9547C70.442 13.9547 70.442 17.6041 70.442 19.5701C70.442 21.4654 70.442 25.1147 67.5829 25.1147C66.6513 25.1147 65.9253 24.665 65.4435 23.9068C64.8909 23.0459 64.8588 21.9408 64.8588 20.9771V18.465ZM51.765 20.6366C51.765 21.8766 51.7971 22.911 51.0775 24.016C50.4928 24.9091 49.5612 25.4616 48.5268 25.4616C47.1134 25.4616 46.2846 24.53 46.2846 23.1551C46.2846 20.6045 49.8375 20.1611 51.765 19.9491V20.6366ZM57.2775 28.3207C57.0012 27.4598 56.9305 26.5988 56.9305 25.6994V17.5334C56.9305 15.4325 57.104 13.505 55.3115 12.053C53.898 10.8772 51.5594 10.4661 49.7604 10.4661C46.0726 10.4661 41.9414 11.7061 41.421 15.9464L46.2139 16.3962C46.2139 14.6743 47.6274 13.8455 49.2464 13.8455C50.0046 13.8455 50.8655 14.0832 51.3152 14.6743C51.8292 15.3297 51.765 16.2227 51.765 16.9808V17.392C49.6319 17.5976 46.8371 17.739 44.839 18.4907C42.526 19.3516 40.907 21.112 40.907 23.6948C40.907 27.0036 43.3163 28.6548 46.4195 28.6548C49.0408 28.6548 50.5571 27.6589 52.0027 25.5901C51.9706 26.4832 52.0348 27.4148 52.2468 28.3143H57.2775V28.3207ZM39.0117 9.88782C37.5661 5.78878 34.1866 4.33676 30.0554 4.33676C27.8838 4.33676 25.8536 4.81862 24.1317 6.26421C22.442 7.67768 21.5811 9.60513 21.5811 11.8153C21.5811 16.9808 25.7187 18.2208 29.9205 19.0818C31.3661 19.3902 34.0581 19.7692 34.0581 21.7352C34.0581 23.7012 31.9572 24.2859 30.3702 24.2859C27.9224 24.2859 26.1298 23.425 25.4424 20.945L20.3411 22.1143C21.4076 26.7338 25.4424 28.6612 29.8884 28.6612C32.2656 28.6612 34.8484 28.2115 36.7437 26.7338C38.5683 25.3203 39.6734 23.1166 39.6734 20.8101C39.6734 18.465 38.4977 16.5054 36.5702 15.2269C34.919 14.1218 32.3298 13.6399 30.4024 13.2287C29.0596 12.9846 26.9908 12.5734 26.9908 10.8515C26.9908 9.02689 28.7833 8.64783 30.2674 8.64783C32.3684 8.64783 33.6469 9.43808 34.3344 11.4426L39.0117 9.88782Z" fill="black"/>
</g>
<defs>
<clipPath id="clip0_10950_286978">
<rect width="144" height="28.6676" fill="white"/>
</clipPath>
</defs>
</svg>
