<?xml version="1.0" encoding="UTF-8"?>
<svg width="134px" height="39px" viewBox="0 0 134 39" version="1.1" xmlns="http://www.w3.org/2000/svg" xmlns:xlink="http://www.w3.org/1999/xlink">
    <!-- Generator: Sketch 61.2 (89653) - https://sketch.com -->
    <title>Logos/Deutsche_Bank_Logo-Text_White</title>
    <desc>Created with Sketch.</desc>
    <g id="Symbols" stroke="none" stroke-width="1" fill="none" fill-rule="evenodd">
        <g id="Components/Menu/Header/Banca_Personal_DK" transform="translate(-35.000000, -61.000000)">
            <g id="Elements/Logos/Deutsche_Bank_Logo-Text_White" transform="translate(35.000000, 61.000000)">
                <path d="M-2.58637556e-12,3.10862447e-13 L4.97560845,3.10862447e-13 C7.18700104,3.10862447e-13 8.80974861,0.61137584 9.84389985,1.83414586 C10.8780511,3.05691588 11.395119,4.84551541 11.395119,7.19999811 C11.395119,9.567489 10.8780511,11.3658445 9.84389985,12.5951186 C8.80974861,13.8243928 7.18700104,14.4390206 4.97560845,14.4390206 L-2.58637556e-12,14.4390206 L-2.58637556e-12,3.10862447e-13 Z M1.73658491,12.9951185 L4.4878037,12.9951185 C6.34797511,12.9951185 7.65202677,12.5300827 8.39999779,11.599997 C9.14796882,10.6699112 9.52194872,9.19675563 9.52194872,7.18048592 C9.52194872,5.19023259 9.14796882,3.73658897 8.39999779,2.81951146 C7.65202677,1.90243394 6.34797511,1.44390206 4.4878037,1.44390206 L1.73658491,1.44390206 L1.73658491,12.9951185 Z M20.5658483,11.6878018 L22.1463356,11.6878018 C21.7690981,13.6650469 20.3967545,14.6536547 18.0292636,14.6536547 C15.0113631,14.6536547 13.5024355,12.9300951 13.5024355,9.48292434 C13.5024355,7.79185942 13.8959274,6.48455576 14.682923,5.56097415 C15.4699186,4.63739254 16.5853543,4.17560866 18.0292636,4.17560866 C20.8780575,4.17560866 22.3024332,5.74957625 22.3024332,8.89755864 C22.3024332,9.2747962 22.2894252,9.60650011 22.2634088,9.89268033 L15.2195082,9.89268033 C15.2195082,12.1821221 16.162588,13.3268258 18.0487757,13.3268258 C19.5056932,13.3268258 20.344709,12.7804899 20.5658483,11.6878018 Z M15.2195082,8.62438798 L20.643897,8.62438798 C20.643897,6.53006912 19.7723612,5.48292539 18.0292636,5.48292539 C16.2731577,5.48292539 15.3365819,6.53006912 15.2195082,8.62438798 Z M31.3170649,14.4390206 L31.2780406,13.0926795 C30.5886064,14.1333348 29.4829267,14.6536547 27.9609683,14.6536547 C25.7365675,14.6536547 24.6243838,13.489439 24.6243838,11.1609727 L24.6243838,4.39024275 L26.2634077,4.39024275 L26.2634077,10.3999973 C26.2634077,11.401628 26.4325117,12.1235718 26.7707247,12.5658504 C27.1089377,13.0081289 27.6617775,13.2292648 28.4292608,13.2292648 C29.1447114,13.2292648 29.7300712,13.0373969 30.1853579,12.6536552 C30.6406446,12.2699136 30.9333246,11.8959337 31.0634065,11.5317043 C31.1544638,11.2715405 31.2129998,11.0113805 31.2390162,10.7512167 C31.2650326,10.4910529 31.2780406,10.2113809 31.2780406,9.91219252 L31.2780406,4.39024275 L32.9170645,4.39024275 L32.9170645,14.4390206 L31.3170649,14.4390206 Z M36.5658441,5.69755948 L34.6731616,5.69755948 L34.6731616,4.39024275 L36.5658441,4.39024275 L36.5658441,1.58048739 L38.204868,1.58048739 L38.204868,4.39024275 L40.7609649,4.39024275 L40.7609649,5.69755948 L38.204868,5.69755948 L38.204868,11.6878018 C38.204868,12.2991868 38.312184,12.7056867 38.5268192,12.9073137 C38.7414543,13.1089407 39.1739702,13.2097526 39.8243798,13.2097526 C40.1365764,13.2097526 40.4877923,13.1772326 40.878038,13.1121917 L40.878038,14.4390206 C40.4617759,14.5170698 40.058528,14.5560937 39.6682823,14.5560937 C38.5105532,14.5560937 37.7040574,14.3609738 37.2487707,13.970728 C36.793484,13.5804874 36.5658441,12.8910585 36.5658441,11.9024359 L36.5658441,5.69755948 Z M42.0877938,11.6487774 L43.6877934,11.6487774 C43.7918589,12.8065065 44.6178667,13.3853623 46.1658415,13.3853623 C47.6878,13.3853623 48.4487678,12.8260185 48.4487678,11.707314 C48.4487678,11.2130027 48.3251918,10.8552828 48.0780362,10.6341436 C47.8308805,10.4130043 47.3560886,10.2373963 46.6536463,10.1073144 L44.8390126,9.756095 C43.1739641,9.43089021 42.3414523,8.52033045 42.3414523,7.0243884 C42.3414523,6.13983136 42.6829122,5.44390355 43.3658423,4.93658407 C44.0487723,4.42926459 44.9690881,4.17560866 46.1268172,4.17560866 C48.5073162,4.17560866 49.7690919,5.1772244 49.912182,7.18048592 L48.3316946,7.18048592 C48.1886045,6.02275686 47.4471487,5.44390101 46.107305,5.44390101 C44.6503875,5.44390101 43.9219397,5.94470888 43.9219397,6.94633964 C43.9219397,7.67479838 44.4097396,8.14308625 45.3853539,8.35121732 L47.551207,8.7804855 C49.242272,9.11869848 50.0877938,10.0747862 50.0877938,11.6487774 C50.0877938,12.572359 49.7365758,13.3040588 49.0341335,13.8438988 C48.3316911,14.3837388 47.3756034,14.6536547 46.1658415,14.6536547 C43.5642032,14.6536547 42.2048676,13.652039 42.0877938,11.6487774 Z M58.6146188,11.1999971 L60.2536427,11.1999971 C60.0194953,13.502447 58.6926796,14.6536547 56.273156,14.6536547 C54.8032303,14.6536547 53.6877946,14.2016268 52.9268154,13.2975575 C52.1658362,12.3934882 51.7853523,11.0959405 51.7853523,9.40487558 C51.7853523,7.75283523 52.1788442,6.46829557 52.9658398,5.55121806 C53.7528354,4.63414054 54.8552631,4.17560866 56.273156,4.17560866 C57.4569014,4.17560866 58.3967292,4.47479258 59.0926674,5.0731694 C59.7886057,5.67154622 60.1755936,6.52356999 60.2536427,7.62926629 L58.6146188,7.62926629 C58.4455123,6.22438159 57.6650325,5.52194977 56.273156,5.52194977 C54.4259927,5.52194977 53.502425,6.81624543 53.502425,9.40487558 C53.502425,12.0065139 54.4259927,13.3073136 56.273156,13.3073136 C57.7170652,13.3073136 58.497545,12.6048818 58.6146188,11.1999971 Z M62.5170568,3.10862447e-13 L64.1560807,3.10862447e-13 L64.1560807,5.75609605 C64.8455149,4.70243252 65.9707066,4.17560866 67.5316896,4.17560866 C69.7951149,4.17560866 70.9268106,5.33332036 70.9268106,7.64877848 L70.9268106,14.4390206 L69.2877867,14.4390206 L69.2877867,8.42926608 C69.2877867,7.42763532 69.1154307,6.70569151 68.7707137,6.26341299 C68.4259966,5.82113447 67.8568967,5.59999853 67.063397,5.59999853 C66.3479465,5.59999853 65.7528306,5.79186648 65.2780316,6.17560814 C64.8032326,6.55934979 64.5007967,6.93332969 64.3707148,7.29755906 C64.2796575,7.55772289 64.2211215,7.81788283 64.1951051,8.07804666 C64.1690887,8.33821049 64.1560807,8.61788242 64.1560807,8.91707083 L64.1560807,14.4390206 L62.5170568,14.4390206 L62.5170568,3.10862447e-13 Z M80.3707106,11.6878018 L81.951198,11.6878018 C81.5739604,13.6650469 80.2016168,14.6536547 77.8341259,14.6536547 C74.8162254,14.6536547 73.3072978,12.9300951 73.3072978,9.48292434 C73.3072978,7.79185942 73.7007897,6.48455576 74.4877853,5.56097415 C75.2747809,4.63739254 76.3902166,4.17560866 77.8341259,4.17560866 C80.6829199,4.17560866 82.1072955,5.74957625 82.1072955,8.89755864 C82.1072955,9.2747962 82.0942875,9.60650011 82.0682711,9.89268033 L75.0243705,9.89268033 C75.0243705,12.1821221 75.9674503,13.3268258 77.8536381,13.3268258 C79.3105556,13.3268258 80.1495714,12.7804899 80.3707106,11.6878018 Z M75.0243705,8.62438798 L80.4487594,8.62438798 C80.4487594,6.53006912 79.5772236,5.48292539 77.8341259,5.48292539 C76.07802,5.48292539 75.1414443,6.53006912 75.0243705,8.62438798 Z M100.487778,10.2048754 C100.487778,11.5707355 100.035751,12.6178792 99.1316813,13.346338 C98.227612,14.0747967 96.9365683,14.4390206 95.2585116,14.4390206 L89.756074,14.4390206 L89.756074,3.10862447e-13 L94.9853409,3.10862447e-13 C98.1203151,3.10862447e-13 99.6877787,1.22925568 99.6877787,3.68780391 C99.6877787,5.17073776 98.9853469,6.1723535 97.5804622,6.69268117 C99.5186828,7.09593511 100.487778,8.26665481 100.487778,10.2048754 Z M91.4536345,6.18536423 L94.6536337,6.18536423 C96.8390099,6.18536423 97.9316816,5.37236444 97.9316816,3.74634048 C97.9316816,2.91381621 97.6715217,2.31219637 97.151194,1.94146291 C96.6308663,1.57072944 95.7983546,1.38536549 94.6536337,1.38536549 L91.4536345,1.38536549 L91.4536345,6.18536423 Z M91.4536345,13.0536551 L95.0243653,13.0536551 C97.4699053,13.0536551 98.692657,12.1235834 98.692657,10.2634119 C98.692657,9.32682214 98.3999771,8.64390232 97.8146085,8.21463199 C97.2292398,7.78536166 96.2991681,7.57072972 95.0243653,7.57072972 L91.4536345,7.57072972 L91.4536345,13.0536551 Z M108.917045,14.4390206 L108.87802,13.3073136 C108.136553,14.2048788 107.043882,14.6536547 105.599972,14.6536547 C104.572325,14.6536547 103.762577,14.3967468 103.170705,13.8829232 C102.578832,13.3690996 102.2829,12.6634158 102.2829,11.7658506 C102.2829,9.54144979 103.687764,8.42926608 106.497533,8.42926608 L108.897532,8.42926608 L108.897532,7.51219315 C108.897532,6.78373441 108.721924,6.26016255 108.370703,5.94146186 C108.019482,5.62276116 107.434122,5.4634132 106.614606,5.4634132 C105.300779,5.4634132 104.559323,5.99674106 104.390216,7.06341278 L102.770705,7.06341278 C103.108918,5.13820041 104.409717,4.17560866 106.673143,4.17560866 C109.222748,4.17560866 110.497532,5.28128837 110.497532,7.49268096 L110.497532,14.4390206 L108.917045,14.4390206 Z M108.897532,9.65853405 L106.38046,9.65853405 C104.754436,9.65853405 103.941436,10.3349499 103.941436,11.6878018 C103.941436,12.8065063 104.604844,13.3658502 105.93168,13.3658502 C106.621114,13.3658502 107.222734,13.2065022 107.736557,12.8878015 C108.250381,12.5691008 108.598345,12.1430889 108.780459,11.6097531 C108.858508,11.3756056 108.897532,11.0699177 108.897532,10.6926801 L108.897532,9.65853405 Z M113.482897,4.39024275 L115.082897,4.39024275 L115.121921,5.75609605 C115.837372,4.70243252 116.962563,4.17560866 118.49753,4.17560866 C120.760955,4.17560866 121.892651,5.33332036 121.892651,7.64877848 L121.892651,14.4390206 L120.253627,14.4390206 L120.253627,8.42926608 C120.253627,7.42763532 120.081271,6.70569151 119.736554,6.26341299 C119.391837,5.82113447 118.822737,5.59999853 118.029237,5.59999853 C117.313787,5.59999853 116.718671,5.79186648 116.243872,6.17560866 C115.769073,6.55934979 115.466637,6.93332969 115.336555,7.29755906 C115.245498,7.55772289 115.186962,7.81788283 115.160945,8.07804666 C115.134929,8.33821049 115.121921,8.61788242 115.121921,8.91707083 L115.121921,14.4390206 L113.482897,14.4390206 L113.482897,4.39024275 Z M126.458503,9.3658512 L126.458503,14.4390206 L124.819479,14.4390206 L124.819479,3.10862447e-13 L126.458503,3.10862447e-13 L126.458503,8.87804645 L130.712161,4.39024275 L132.66338,4.39024275 L128.175576,9.01463178 L133.229233,14.4390206 L131.102405,14.4390206 L126.458503,9.3658512 Z" id="DeutscheBank" fill="#FFFFFF"></path>
                <path d="M1.21502808e-12,20 L9.22926587,20 L9.22926587,21.4439021 L1.73658491,21.4439021 L1.73658491,26.263413 L8.64390017,26.263413 L8.64390017,27.707315 L1.73658491,27.707315 L1.73658491,32.9951185 L9.22926587,32.9951185 L9.22926587,34.4390206 L1.21502808e-12,34.4390206 L1.21502808e-12,20 Z M11.2195093,31.6487774 L12.8195088,31.6487774 C12.9235744,32.8065065 13.7495821,33.3853623 15.297557,33.3853623 C16.8195154,33.3853623 17.5804832,32.8260185 17.5804832,31.707314 C17.5804832,31.2130027 17.4569072,30.8552828 17.2097516,30.6341435 C16.9625959,30.4130043 16.4878041,30.2373963 15.7853617,30.1073144 L13.970728,29.756095 C12.3056795,29.4308902 11.4731677,28.5203304 11.4731677,27.0243884 C11.4731677,26.1398314 11.8146276,25.4439035 12.4975577,24.9365841 C13.1804878,24.4292646 14.1008035,24.1756087 15.2585326,24.1756087 C17.6390317,24.1756087 18.9008073,25.1772244 19.0438974,27.1804859 L17.4634101,27.1804859 C17.3203199,26.0227569 16.5788641,25.443901 15.2390204,25.443901 C13.7821029,25.443901 13.0536551,25.9447089 13.0536551,26.9463396 C13.0536551,27.6747984 13.541455,28.1430863 14.5170694,28.3512173 L16.6829225,28.7804855 C18.3739874,29.1186985 19.2195093,30.0747862 19.2195093,31.6487774 C19.2195093,32.572359 18.8682912,33.3040588 18.1658489,33.8438988 C17.4634065,34.3837388 16.5073188,34.6536547 15.297557,34.6536547 C12.6959186,34.6536547 11.336583,33.652039 11.2195093,31.6487774 Z M23.1609695,33.1512161 L23.1609695,38.3414586 L21.5219456,38.3414586 L21.5219456,24.3902427 L23.1219452,24.3902427 L23.1609695,25.8926814 C23.8894283,24.7479605 24.956084,24.1756087 26.3609687,24.1756087 C27.7918698,24.1756087 28.8877935,24.6211325 29.6487727,25.5121937 C30.4097519,26.4032548 30.7902358,27.6747865 30.7902358,29.3268268 C30.7902358,31.0308999 30.4032479,32.3447076 29.6292605,33.2682892 C28.8552731,34.1918708 27.7723574,34.6536547 26.3804809,34.6536547 C24.9105552,34.6536547 23.8373955,34.1528468 23.1609695,33.1512161 Z M23.1219452,29.1121927 L23.1219452,29.658534 C23.1219452,30.7642303 23.3886091,31.6455221 23.9219449,32.3024358 C24.4552808,32.9593495 25.1772246,33.2878014 26.087798,33.2878014 C28.0780514,33.2878014 29.0731631,31.9674897 29.0731631,29.3268268 C29.0731631,26.8032376 28.1040674,25.541462 26.1658468,25.541462 C25.2812898,25.541462 24.5528419,25.8796699 23.9804815,26.5560958 C23.4081211,27.2325218 23.1219452,28.0845456 23.1219452,29.1121927 Z M39.1609653,34.4390206 L39.121941,33.3073136 C38.380474,34.2048788 37.2878023,34.6536547 35.843893,34.6536547 C34.8162459,34.6536547 34.0064981,34.3967468 33.4146254,33.8829232 C32.8227527,33.3690996 32.5268207,32.6634158 32.5268207,31.7658506 C32.5268207,29.5414498 33.9316844,28.4292661 36.7414538,28.4292661 L39.1414531,28.4292661 L39.1414531,27.5121931 C39.1414531,26.7837344 38.9658452,26.2601626 38.614624,25.9414619 C38.2634028,25.6227612 37.678043,25.4634132 36.8585269,25.4634132 C35.5446995,25.4634132 34.8032437,25.9967411 34.6341373,27.0634128 L33.0146255,27.0634128 C33.3528385,25.1382004 34.6536381,24.1756087 36.9170635,24.1756087 C39.4666691,24.1756087 40.7414527,25.2812884 40.7414527,27.492681 L40.7414527,34.4390206 L39.1609653,34.4390206 Z M39.1414531,29.658534 L36.6243806,29.658534 C34.9983567,29.658534 34.1853569,30.3349499 34.1853569,31.6878018 C34.1853569,32.8065063 34.8487647,33.3658501 36.1756003,33.3658501 C36.8650344,33.3658501 37.4666543,33.2065022 37.9804778,32.8878015 C38.4943014,32.5691008 38.8422653,32.1430889 39.02438,31.609753 C39.1024292,31.3756056 39.1414531,31.0699177 39.1414531,30.6926801 L39.1414531,29.658534 Z M43.7268178,24.3902427 L45.3268174,24.3902427 L45.3658418,25.756096 C46.0812923,24.7024325 47.206484,24.1756087 48.7414506,24.1756087 C51.004876,24.1756087 52.1365717,25.3333204 52.1365717,27.6487785 L52.1365717,34.4390206 L50.4975477,34.4390206 L50.4975477,28.4292661 C50.4975477,27.4276353 50.3251918,26.7056915 49.9804747,26.263413 C49.6357576,25.8211345 49.0666578,25.5999985 48.2731581,25.5999985 C47.5577075,25.5999985 46.9625917,25.7918665 46.4877927,26.1756087 C46.0129937,26.5593498 45.7105578,26.9333297 45.5804758,27.2975591 C45.4894185,27.5577229 45.4308825,27.8178828 45.4048661,28.0780467 C45.3788497,28.3382105 45.3658418,28.6178824 45.3658418,28.9170708 L45.3658418,34.4390206 L43.7268178,34.4390206 L43.7268178,24.3902427 Z M48.2146215,20.8585364 C48.4617771,21.0666674 48.6796611,21.2520314 48.8682799,21.4146338 C49.0568986,21.5772362 49.2422626,21.6585361 49.4243773,21.6585361 C49.6715329,21.6585361 49.8406369,21.5121962 49.9316942,21.2195119 C50.0227516,20.9268276 50.0682795,20.5528477 50.0682795,20.0975609 L51.3365719,20.0975609 C51.3365719,20.8780525 51.2064919,21.5382083 50.9463281,22.0780482 C50.6861643,22.6178882 50.1658444,22.8878041 49.3853529,22.8878041 C49.0081153,22.8878041 48.6959234,22.8032521 48.4487678,22.6341456 C48.2016121,22.4650392 47.9479562,22.2699192 47.6877924,22.0487799 C47.4406367,21.8276407 47.2422648,21.6390247 47.0926706,21.4829264 C46.9430764,21.3268281 46.7707204,21.2487802 46.5755975,21.2487802 C46.2764091,21.2487802 46.0715332,21.3983721 45.9609635,21.6975605 C45.8503939,21.9967489 45.7951099,22.3674768 45.7951099,22.8097554 L44.5268176,22.8097554 C44.5268176,22.0292639 44.6634015,21.369108 44.9365736,20.8292681 C45.2097456,20.2894281 45.7430735,20.0195122 46.5365732,20.0195122 C46.8747861,20.0195122 47.1642141,20.0943082 47.4048656,20.2439024 C47.6455172,20.3934966 47.9154331,20.5983725 48.2146215,20.8585364 Z M60.9951059,34.4390206 L60.9560816,33.3073136 C60.2146146,34.2048788 59.1219429,34.6536547 57.6780336,34.6536547 C56.6503865,34.6536547 55.8406387,34.3967468 55.248766,33.8829232 C54.6568933,33.3690996 54.3609613,32.6634158 54.3609613,31.7658506 C54.3609613,29.5414498 55.765825,28.4292661 58.5755944,28.4292661 L60.9755938,28.4292661 L60.9755938,27.5121931 C60.9755938,26.7837344 60.7999858,26.2601626 60.4487646,25.9414619 C60.0975434,25.6227612 59.5121836,25.4634132 58.6926675,25.4634132 C57.3788402,25.4634132 56.6373844,25.9967411 56.4682779,27.0634128 L54.8487661,27.0634128 C55.1869791,25.1382004 56.4877787,24.1756087 58.7512041,24.1756087 C61.3008097,24.1756087 62.5755933,25.2812884 62.5755933,27.492681 L62.5755933,34.4390206 L60.9951059,34.4390206 Z M60.9755938,29.658534 L58.4585212,29.658534 C56.8324973,29.658534 56.0194975,30.3349499 56.0194975,31.6878018 C56.0194975,32.8065063 56.6829053,33.3658501 58.0097409,33.3658501 C58.699175,33.3658501 59.3007949,33.2065022 59.8146184,32.8878015 C60.328442,32.5691008 60.6764059,32.1430889 60.8585206,31.609753 C60.9365698,31.3756056 60.9755938,31.0699177 60.9755938,30.6926801 L60.9755938,29.658534 Z" id="España" fill="#00A3E0"></path>
            </g>
        </g>
    </g>
</svg>